<svg width="100" height="100" viewBox="0 0 100 100" fill="none" xmlns="http://www.w3.org/2000/svg">
<path d="M92.1875 0H7.8125C3.49583 0 0 3.5 0 7.8125V92.1875C0 96.5042 3.5 100 7.8125 100H92.1875C96.5042 100 100 96.5 100 92.1875V7.8125C100 3.49583 96.5 0 92.1875 0ZM50 78.125C47.5333 78.125 45.1278 77.9583 42.7833 77.625C40.4417 79.275 26.8958 88.7875 25.6167 88.9667C25.6167 88.9667 25.0958 89.1708 24.65 88.9083C24.2042 88.6458 24.2833 87.9542 24.2833 87.9542C24.4167 87.0375 27.7958 75.3792 28.4167 73.2333C16.9792 67.5667 9.375 57.5292 9.375 46.0958C9.375 28.4042 27.5625 14.0625 50 14.0625C72.4375 14.0625 90.625 28.4042 90.625 46.0958C90.625 63.7875 72.4375 78.125 50 78.125Z" fill="url(#paint0_linear_41_507)"/>
<path d="M43.6342 63.5199C43.6342 65.4117 43.6549 67.2212 43.6673 68.3445C43.6705 68.6158 43.7563 68.8793 43.9126 69.0987C44.069 69.3181 44.2883 69.4825 44.5401 69.5691C48.838 71.0175 53.4688 71.0851 57.806 69.7612L58.4099 69.5775C58.6943 69.4907 58.9439 69.313 59.1219 69.0704C59.2998 68.8279 59.3968 68.5335 59.3986 68.2305C59.4089 66.6828 59.4337 63.9717 59.4337 60.7771C59.4337 57.8802 58.4472 56.0264 57.3013 55.0615C64.3314 54.2887 71.7172 51.6621 71.7172 39.8021C71.7172 36.4027 70.4928 33.6579 68.4783 31.4958C68.7947 30.723 69.9012 27.5558 68.1618 23.3076C68.1618 23.3076 65.5144 22.4567 59.473 26.4748C56.8952 25.7772 54.2391 25.4266 51.5722 25.4317C48.8876 25.4317 46.2009 25.7801 43.6735 26.4748C37.6321 22.4926 34.9847 23.3076 34.9847 23.3076C33.2474 27.5558 34.3518 30.723 34.6683 31.4958C32.5596 33.7214 31.3958 36.706 31.4294 39.8021C31.4294 51.6219 38.7758 54.2866 45.8059 55.0615C44.8979 55.8342 44.0685 57.1856 43.7935 59.1935C41.9755 60.0043 37.4335 61.3176 34.5897 56.645C33.9981 55.716 32.2194 53.4378 29.7313 53.4779C27.0839 53.5159 28.6641 54.9453 29.7727 55.526C31.1129 56.2586 32.6538 59.0014 33.0095 59.8903C33.6424 61.628 35.6962 64.9493 43.6342 63.522" fill="url(#paint1_linear_41_507)"/>
<defs>
<linearGradient id="paint0_linear_41_507" x1="11" y1="6.5" x2="105" y2="97.5" gradientUnits="userSpaceOnUse">
<stop offset="0.254808" stop-color="#65D80D"/>
<stop offset="1" stop-color="#CDF567"/>
</linearGradient>
<linearGradient id="paint1_linear_41_507" x1="11" y1="6.5" x2="105" y2="97.5" gradientUnits="userSpaceOnUse">
<stop offset="0.254808" stop-color="#65D80D"/>
<stop offset="1" stop-color="#CDF567"/>
</linearGradient>
</defs>
</svg>
